<?xml version="1.0" standalone="no"?><!DOCTYPE svg PUBLIC "-//W3C//DTD SVG 1.1//EN" "http://www.w3.org/Graphics/SVG/1.1/DTD/svg11.dtd"><svg t="1660551088682" class="icon" viewBox="0 0 1024 1024" version="1.1" xmlns="http://www.w3.org/2000/svg" p-id="12189" xmlns:xlink="http://www.w3.org/1999/xlink" width="64" height="64"><defs><style type="text/css">@font-face { font-family: feedback-iconfont; src: url("//at.alicdn.com/t/font_1031158_u69w8yhxdu.woff2?t=1630033759944") format("woff2"), url("//at.alicdn.com/t/font_1031158_u69w8yhxdu.woff?t=1630033759944") format("woff"), url("//at.alicdn.com/t/font_1031158_u69w8yhxdu.ttf?t=1630033759944") format("truetype"); }
</style></defs><path d="M488.448 290.816H218.624c-14.336 0-25.6-11.264-25.6-25.6s11.264-25.6 25.6-25.6h269.824c13.824 0 25.6 11.264 25.6 25.6s-11.264 25.6-25.6 25.6zM819.2 537.6H218.624c-14.336 0-25.6-11.776-25.6-25.6s11.264-25.6 25.6-25.6H819.2c13.824 0 25.6 11.776 25.6 25.6 0 14.336-11.776 25.6-25.6 25.6zM819.2 784.384H218.624c-14.336 0-25.6-11.776-25.6-25.6 0-14.336 11.264-25.6 25.6-25.6H819.2c13.824 0 25.6 11.776 25.6 25.6s-11.776 25.6-25.6 25.6z" p-id="12190" fill="#1296db"></path><path d="M944.128 269.824L648.704 0H138.752c-30.208 0-54.784 23.04-54.784 51.2v921.6c0 28.16 24.576 51.2 54.784 51.2h750.592c30.208 0 54.784-23.04 54.784-51.2V269.824z m-301.568-206.336L870.4 271.872h-224.256c-1.536 0-3.072-0.512-3.584-1.024V63.488z m250.368 908.288c-0.512 0.512-1.536 1.024-3.584 1.024H138.752c-1.536 0-3.072-0.512-3.584-1.024V52.224c0.512-0.512 1.536-1.024 3.584-1.024h452.608v220.672c0 28.16 24.576 51.2 54.784 51.2h246.784v648.704z" p-id="12191" fill="#1296db"></path></svg>