<?xml version="1.0" standalone="no"?><!DOCTYPE svg PUBLIC "-//W3C//DTD SVG 1.1//EN" "http://www.w3.org/Graphics/SVG/1.1/DTD/svg11.dtd"><svg t="1660550604017" class="icon" viewBox="0 0 1024 1024" version="1.1" xmlns="http://www.w3.org/2000/svg" p-id="9010" xmlns:xlink="http://www.w3.org/1999/xlink" width="64" height="64"><defs><style type="text/css">@font-face { font-family: feedback-iconfont; src: url("//at.alicdn.com/t/font_1031158_u69w8yhxdu.woff2?t=1630033759944") format("woff2"), url("//at.alicdn.com/t/font_1031158_u69w8yhxdu.woff?t=1630033759944") format("woff"), url("//at.alicdn.com/t/font_1031158_u69w8yhxdu.ttf?t=1630033759944") format("truetype"); }
</style></defs><path d="M238.9504 86.016l596.168704 0c31.023104 0 61.544448 15.855616 82.235392 36.54656l0 0 0 0C937.310208 142.516224 952.32 174.620672 952.32 204.906496l0 596.154368c0 31.023104-15.009792 62.19776-34.963456 82.888704C896.663552 903.90528 866.144256 919.552 835.119104 919.552L238.9504 919.552c-31.023104 0-63.029248-15.64672-82.982912-35.60448l0 0C135.278592 863.258624 118.784 832.083968 118.784 801.060864L118.784 204.906496c0-31.023104 16.494592-62.390272 37.185536-82.343936C175.921152 101.871616 207.685632 86.016 238.710784 86.016L238.9504 86.016zM835.119104 139.264 238.9504 139.264c-19.939328 0-35.299328 4.386816-48.596992 17.686528C177.057792 170.246144 172.032 184.96512 172.032 204.906496l0 596.154368c0 20.692992 5.025792 34.484224 18.323456 47.765504 13.297664 13.309952 28.655616 17.477632 48.596992 17.477632l596.168704 0c19.93728 0 33.814528-4.16768 47.112192-17.477632 13.297664-13.28128 16.840704-27.81184 16.840704-47.765504L899.074048 204.906496c0-19.939328-3.540992-34.658304-16.840704-47.955968l0 0C868.933632 143.650816 855.556096 139.264 834.87744 139.264L835.119104 139.264z" p-id="9011" fill="#1296db"></path><path d="M557.346816 264.751104c70.928384 0 135.190528 22.892544 182.4768 59.834368 48.011264 37.679104 77.55776 90.13248 77.55776 149.213184 0 58.382336-29.546496 110.80704-77.55776 149.239808-47.286272 36.190208-111.548416 59.092992-182.4768 59.092992-12.550144 0-25.84576 0-38.406144-1.476608-10.344448-0.73728-19.953664-2.215936-28.809216-4.429824l-119.678976 93.810688c-8.132608 6.641664-20.692992 5.165056-27.334656-2.951168-3.690496-5.163008-5.165056-11.071488-3.690496-17.002496l0 0 31.762432-130.736128c-21.430272-17.000448-39.155712-37.689344-51.714048-61.335552-14.034944-25.829376-22.153216-54.638592-22.153216-84.211712 0-59.082752 29.546496-111.53408 77.559808-149.213184C422.166528 287.645696 486.428672 264.751104 557.346816 264.751104L557.346816 264.751104zM715.440128 354.869248c-39.892992-31.760384-96.034816-50.962432-158.093312-50.962432-62.048256 0-118.192128 19.2-158.08512 50.962432-39.153664 31.03744-62.797824 72.404992-62.797824 118.929408 0 22.904832 5.916672 45.807616 17.000448 65.76128 11.821056 21.430272 29.548544 40.617984 51.70176 56.881152l0 0c5.91872 4.427776 8.869888 12.548096 7.391232 19.951616l-22.165504 88.643584 82.737152-65.026048c4.440064-4.427776 11.821056-6.641664 18.477056-4.427776 9.59488 3.688448 19.941376 5.19168 31.023104 6.668288 10.346496 0.73728 22.165504 0.73728 34.715648 0.73728 62.060544 0 118.202368-19.214336 158.093312-50.976768 39.153664-30.287872 62.785536-72.40704 62.785536-118.216704C778.225664 427.276288 754.593792 385.906688 715.440128 354.869248L715.440128 354.869248z" p-id="9012" fill="#1296db"></path></svg>